<?xml version="1.0" standalone="no"?><!DOCTYPE svg PUBLIC "-//W3C//DTD SVG 1.1//EN" "http://www.w3.org/Graphics/SVG/1.1/DTD/svg11.dtd"><svg t="1641432593240" class="icon" viewBox="0 0 1024 1024" version="1.1" xmlns="http://www.w3.org/2000/svg" p-id="4420" xmlns:xlink="http://www.w3.org/1999/xlink" width="200" height="200"><defs><style type="text/css"></style></defs><path d="M282.581333 138.666667l18.517334 32H110.933333C73.216 170.666667 42.666667 199.338667 42.666667 234.666667S73.216 298.666667 110.933333 298.666667h81.066667c0 104.661333 46.506667 201.088 106.666667 277.333333-47.061333 27.221333-112.384 42.666667-170.666667 42.666667a64 64 0 1 0 0 128c95.146667 0 183.466667-29.696 256-80.298667a445.44 445.44 0 0 0 207.104 77.653333l-72.362667 144.682667a64 64 0 0 0 114.517334 57.258667L658.218667 896h176.896l24.96 49.92a64 64 0 0 0 114.474666-57.173333l-170.666666-341.333334a64 64 0 0 0-114.474667 0l-36.266667 72.576c-4.266667-0.853333-8.661333-1.322667-13.141333-1.322666-58.282667 0-123.605333-15.445333-170.666667-42.666667 60.16-76.245333 106.666667-172.672 106.666667-277.333333h81.066667c37.717333 0 68.266667-28.672 68.266666-64S694.784 170.666667 657.066667 170.666667h-208.213334L393.472 74.666667a64 64 0 0 0-110.848 64zM320 298.666667h128A318.592 318.592 0 0 1 384 490.666667 318.592 318.592 0 0 1 320 298.666667z m426.666667 420.437333L792.448 810.666667h-91.562667l45.781334-91.562667z" p-id="4421"></path></svg>